<?xml version="1.0" standalone="no"?>
<!DOCTYPE svg PUBLIC "-//W3C//DTD SVG 20010904//EN"
 "http://www.w3.org/TR/2001/REC-SVG-20010904/DTD/svg10.dtd">
<svg version="1.0" xmlns="http://www.w3.org/2000/svg"
 width="1069.000000pt" height="1280.000000pt" viewBox="0 0 1069.000000 1280.000000"
 preserveAspectRatio="xMidYMid meet">

<g transform="translate(0.000000,1280.000000) scale(0.100000,-0.100000)"
fill="#000000" stroke="none">
<path d="M3135 12758 c-33 -23 -66 -48 -73 -55 -7 -7 -16 -13 -20 -13 -4 0
-23 -14 -42 -30 -19 -16 -38 -30 -42 -30 -4 0 -13 -6 -20 -13 -7 -7 -60 -46
-118 -87 -58 -41 -107 -77 -110 -80 -16 -18 -96 -70 -109 -71 -9 -1 -5 -4 9
-8 31 -9 -10 -16 -465 -73 -187 -24 -323 -44 -301 -46 l39 -3 -59 -40 c-33
-22 -93 -64 -134 -94 -41 -30 -104 -75 -140 -100 -36 -25 -85 -60 -110 -78
-473 -336 -612 -436 -646 -464 l-41 -33 -17 33 c-23 44 -15 21 65 -192 39
-101 68 -186 65 -189 -4 -3 -6 0 -6 6 0 11 -77 -36 -114 -70 -11 -10 -23 -18
-26 -18 -4 0 -16 -8 -27 -18 -11 -9 -43 -33 -72 -52 -28 -19 -51 -42 -52 -50
0 -8 -7 0 -15 18 -8 17 -16 32 -19 32 -5 0 -9 8 98 -255 84 -206 154 -377 834
-2043 185 -452 339 -819 342 -814 3 5 13 12 21 15 8 4 31 20 51 35 20 15 79
58 132 95 72 50 95 72 91 85 -15 50 35 -58 116 -253 95 -225 260 -639 260
-650 0 -3 -4 -3 -10 0 -8 5 -201 -123 -220 -145 -3 -4 -20 -15 -37 -25 -18
-11 -33 -24 -33 -30 0 -5 -7 -1 -15 9 -8 11 -15 17 -15 14 0 -5 135 -338 543
-1338 582 -1426 721 -1763 725 -1752 2 7 9 12 15 12 7 0 31 15 53 33 23 17 52
39 64 47 12 8 52 36 88 63 35 26 69 47 74 47 5 0 6 10 2 23 -30 98 95 -193
265 -615 61 -153 111 -280 111 -283 0 -4 -4 -3 -10 0 -10 6 -239 -152 -276
-191 -12 -13 -25 -20 -29 -16 -8 8 8 -32 120 -308 197 -486 951 -2330 1073
-2625 l28 -70 57 -3 c57 -3 87 11 145 66 7 6 17 12 21 12 4 0 16 8 27 18 10 9
28 24 38 32 18 14 19 14 7 -8 -7 -13 -11 -25 -9 -28 2 -2 43 83 90 189 346
775 1795 4030 2120 4761 219 494 397 905 394 913 -3 8 -2 12 2 9 9 -5 56 83
49 90 -2 2 -12 -14 -22 -36 -10 -22 -22 -40 -26 -40 -5 0 -28 -15 -52 -32 -24
-18 -88 -64 -141 -103 -53 -38 -105 -77 -115 -85 -10 -8 -71 -51 -134 -95 -75
-51 -120 -90 -128 -108 -6 -15 -14 -26 -16 -24 -5 6 108 266 381 880 303 680
390 870 394 857 3 -8 84 39 102 59 3 3 32 24 64 46 33 22 64 44 70 50 6 6 58
44 116 85 58 41 111 80 118 87 7 7 17 13 21 13 5 0 25 16 45 35 32 30 36 32
30 12 -14 -46 6 -7 71 138 161 361 388 869 900 2020 301 677 666 1496 811
1822 l264 592 0 104 0 104 -57 7 c-480 57 -742 86 -767 85 l-31 -2 35 -7 c33
-7 33 -7 7 -9 -17 0 -53 -19 -85 -44 -32 -23 -70 -51 -87 -61 -16 -11 -35 -24
-41 -30 -6 -6 -59 -45 -117 -86 -63 -45 -101 -77 -94 -82 6 -3 -7 -5 -29 -2
-21 3 -163 18 -314 34 -430 46 -1044 123 -1028 129 15 6 110 71 118 81 3 3 52
39 110 80 58 41 107 77 110 80 3 3 19 14 35 24 17 11 34 25 38 33 4 7 22 14
40 14 41 2 2 7 -515 68 -235 28 -457 51 -493 51 -62 0 -66 -1 -76 -27 -12 -30
-165 -447 -335 -912 -57 -157 -102 -286 -100 -288 2 -2 8 10 14 27 6 17 15 29
20 28 9 -3 177 110 206 137 6 6 58 44 116 85 58 41 107 77 110 81 3 3 15 11
28 18 13 7 32 27 42 44 11 18 20 29 20 24 0 -17 -351 -981 -503 -1382 -60
-158 -104 -264 -92 -222 6 22 -9 13 -100 -56 -14 -11 -127 -91 -241 -172 -54
-38 -118 -89 -141 -112 -23 -23 -40 -35 -37 -25 22 77 -54 -123 -316 -838 -62
-168 -158 -431 -215 -585 -57 -154 -185 -503 -285 -775 -100 -272 -222 -604
-271 -738 -49 -133 -89 -247 -89 -252 0 -22 -19 -8 -24 18 -11 48 -635 1918
-630 1885 4 -27 1 -34 -23 -50 -15 -9 -30 -20 -33 -23 -3 -3 -52 -39 -110 -80
-58 -41 -107 -78 -108 -82 -2 -5 -9 -5 -14 -1 -7 4 -9 -2 -5 -17 3 -13 2 -19
-2 -14 -22 23 -318 931 -307 941 3 4 6 3 6 -1 0 -4 19 7 42 26 23 18 52 40 64
48 106 71 184 134 184 148 0 15 2 15 11 2 10 -13 10 -13 6 0 -17 58 -86 270
-197 605 -70 215 -260 788 -420 1275 -161 487 -320 968 -354 1070 l-62 185
-54 3 c-51 2 -60 -1 -115 -40z m6920 -633 c72 -8 136 -15 143 -15 6 0 12 -4
12 -9 0 -17 -862 -1950 -959 -2151 -36 -74 -46 -88 -24 -32 5 13 0 11 -23 -8
-17 -14 -41 -33 -55 -42 -13 -10 -57 -41 -97 -70 -40 -29 -104 -75 -143 -103
-39 -27 -102 -72 -140 -100 -38 -27 -100 -72 -137 -98 -237 -168 -2515 -1794
-2552 -1821 -25 -18 -59 -41 -76 -51 -18 -10 -36 -32 -43 -52 -7 -19 -15 -33
-17 -30 -9 9 796 2209 857 2340 10 23 16 32 13 19 -5 -20 4 -16 68 29 40 29
96 69 124 89 28 19 503 358 1055 752 552 394 1034 738 1072 765 37 26 99 71
137 98 88 63 155 111 415 296 116 82 223 159 240 171 l30 22 -25 7 c-39 11
-15 10 125 -6z m-5451 -4485 c188 -565 278 -851 271 -858 -3 -3 -5 0 -5 6 0
20 -18 14 -68 -23 -46 -35 -122 -90 -263 -190 -39 -27 -101 -72 -140 -100 -38
-27 -101 -72 -140 -100 -39 -27 -100 -70 -134 -95 -34 -25 -88 -63 -120 -85
-31 -22 -88 -62 -126 -90 -38 -27 -101 -72 -140 -100 -39 -27 -102 -72 -140
-100 -38 -27 -154 -111 -259 -185 -104 -74 -190 -142 -191 -150 0 -8 -12 10
-26 40 -77 168 -504 1216 -517 1270 -3 14 -3 20 0 13 5 -11 61 24 180 112 22
16 76 55 119 85 43 30 103 73 134 96 57 41 629 451 750 536 36 26 98 70 136
98 39 27 99 70 135 96 36 25 99 70 140 100 41 30 103 73 138 96 38 26 65 53
69 67 8 31 12 19 197 -539z m680 -6614 c-81 -185 -149 -336 -153 -336 -5 0
-122 295 -137 345 -5 18 -4 18 6 3 10 -17 14 -16 53 13 23 16 75 54 114 82 40
29 107 77 149 107 56 40 80 65 91 93 9 21 17 36 20 34 2 -3 -62 -156 -143
-341z"/>
<path d="M3078 12783 c7 -3 16 -2 19 1 4 3 -2 6 -13 5 -11 0 -14 -3 -6 -6z"/>
<path d="M8583 12673 c9 -2 25 -2 35 0 9 3 1 5 -18 5 -19 0 -27 -2 -17 -5z"/>
<path d="M1413 12593 c9 -2 23 -2 30 0 6 3 -1 5 -18 5 -16 0 -22 -2 -12 -5z"/>
<path d="M665 12514 c-347 -40 -638 -73 -647 -73 -16 -1 -18 -13 -18 -104 l0
-104 84 -204 c92 -222 128 -305 122 -274 -4 16 21 38 131 115 75 52 142 101
149 108 10 10 14 8 19 -9 4 -11 9 -19 11 -16 2 2 -9 37 -26 77 -16 41 -28 75
-26 77 1 2 77 12 167 23 175 22 205 28 149 29 l-35 1 34 28 c19 15 45 34 57
42 13 8 91 65 174 125 84 61 162 117 173 125 82 57 109 80 92 80 -30 0 -11 10
36 19 100 20 -41 6 -646 -65z"/>
<path d="M9783 12533 c9 -2 25 -2 35 0 9 3 1 5 -18 5 -19 0 -27 -2 -17 -5z"/>
<path d="M1738 12243 c7 -3 16 -2 19 1 4 3 -2 6 -13 5 -11 0 -14 -3 -6 -6z"/>
<path d="M6476 10125 c-9 -26 -7 -32 5 -12 6 10 9 21 6 23 -2 3 -7 -2 -11 -11z"/>
<path d="M4341 9630 c0 -8 4 -22 9 -30 12 -18 12 -2 0 25 -6 13 -9 15 -9 5z"/>
</g>
</svg>
